HIERARCHY
ROOT Hips
{
     OFFSET -107.43100 97.64760 103.07000
     CHANNELS 6 Xposition Yposition Zposition Zrotation Xrotation Yrotation
     JOINT Spine
     {
          OFFSET 0.00000 11.89050 -0.00000
          CHANNELS 3 Zrotation Xrotation Yrotation
          JOINT Spine1
          {
               OFFSET 0.00000 25.65740 0.12766
               CHANNELS 3 Zrotation Xrotation Yrotation
               JOINT HEad
               {
                    OFFSET -0.00000 8.73416 0.01134
                    CHANNELS 3 Zrotation Xrotation Yrotation
                    End Site
                    {
                         OFFSET -0.29000 12.77420 2.51395
                    }
               }
               JOINT LeftShoulder1
               {
                    OFFSET 8.99000 -0.36225 -0.22000
                    CHANNELS 3 Zrotation Xrotation Yrotation
                    JOINT LeftArm
                    {
                         OFFSET 10.28270 -0.00338 0.32212
                         CHANNELS 3 Zrotation Xrotation Yrotation
                         JOINT LeftForeArm
                         {
                              OFFSET 32.76690 0.09914 -1.42434
                              CHANNELS 3 Zrotation Xrotation Yrotation
                              JOINT LeftHand
                              {
                                   OFFSET 27.56430 0.08536 1.02216
                                   CHANNELS 3 Zrotation Xrotation Yrotation
                                   End Site
                                   {
                                        OFFSET 16.74430 -0.60000 1.50291
                                   }
                              }
                         }
                    }
               }
               JOINT RightShoulder
               {
                    OFFSET -8.99000 -0.36225 -0.22000
                    CHANNELS 3 Zrotation Xrotation Yrotation
                    JOINT RightArm
                    {
                         OFFSET -10.28270 -0.00338 0.32212
                         CHANNELS 3 Zrotation Xrotation Yrotation
                         JOINT RightForeArm
                         {
                              OFFSET -32.89710 0.09914 -1.42434
                              CHANNELS 3 Zrotation Xrotation Yrotation
                              JOINT RightHand
                              {
                                   OFFSET -27.49210 0.08536 1.02216
                                   CHANNELS 3 Zrotation Xrotation Yrotation
                                   End Site
                                   {
                                        OFFSET -16.63120 -0.60000 1.50291
                                   }
                              }
                         }
                    }
               }
          }
     }
     JOINT LeftUpLeg
     {
          OFFSET 8.94580 -8.66707 0.10165
          CHANNELS 3 Zrotation Xrotation Yrotation
          JOINT LeftLeg
          {
               OFFSET 0.00000 -44.42270 1.37270
               CHANNELS 3 Zrotation Xrotation Yrotation
               JOINT LeftFoot
               {
                    OFFSET -0.25355 -42.09240 -1.46059
                    CHANNELS 3 Zrotation Xrotation Yrotation
                    JOINT LeftToes
                    {
                         OFFSET -0.04000 -4.41509 8.49910
                         CHANNELS 3 Zrotation Xrotation Yrotation
                         End Site
                         {
                              OFFSET 0.08000 -0.04745 9.77979
                         }
                    }
               }
          }
     }
     JOINT RightUpLeg
     {
          OFFSET -8.94580 -8.66707 0.10165
          CHANNELS 3 Zrotation Xrotation Yrotation
          JOINT RightLeg
          {
               OFFSET 0.00000 -44.42270 1.37270
               CHANNELS 3 Zrotation Xrotation Yrotation
               JOINT RightFoot
               {
                    OFFSET 0.25355 -42.09240 -1.46059
                    CHANNELS 3 Zrotation Xrotation Yrotation
                    JOINT RightToes
                    {
                         OFFSET 0.04000 -4.41509 8.49910
                         CHANNELS 3 Zrotation Xrotation Yrotation
                         End Site
                         {
                              OFFSET -0.08000 -0.13745 9.77979
                         }
                    }
               }
          }
     }
}
MOTION
Frames: 7
Frame Time: 0.01667
-107.43100 97.64760 103.07000 0.41968 1.13632 80.02130 2.12328 4.90398 3.28640 0.02340 10.06900 6.82825 -11.05840 -6.95077 37.91920 -0.00000 -0.00000 0.00000 -66.03180 -5.45066 -16.86170 -14.49880 21.85190 -51.19470 5.55594 9.67997 -0.87718 24.90590 2.32090 6.36752 35.11280 6.52471 21.16440 11.13240 22.55160 64.84990 -5.55712 9.68432 0.87760 11.72700 -11.38490 2.84908 2.86035 16.04470 -5.86051 -10.20800 -2.25428 0.48187 0.70357 -17.85110 -2.86102 -4.98412 2.46781 -2.98349 -3.84456 19.50900 0.00261 -0.55143 -18.12430 -0.29360 -7.38877 -9.98733 0.07157 
-107.54100 97.68780 102.84800 0.49011 1.24558 80.28870 1.95802 4.96771 3.27048 -0.14177 10.18560 6.78866 -11.03400 -7.23475 37.94170 -0.00000 -0.00000 0.00000 -65.91920 -5.44611 -17.61730 -14.31230 21.50330 -51.48590 5.55594 9.67997 -0.87718 25.22210 2.38161 6.50229 35.09770 6.16516 20.69270 11.16340 22.70240 65.38600 -5.55712 9.68432 0.87760 11.49490 -11.45180 3.11734 2.81120 15.79570 -6.47544 -10.16020 -2.31193 0.47482 0.70147 -17.49190 -2.84924 -5.34692 2.51752 -3.27587 -3.58610 19.41910 -0.08296 -0.76235 -17.89100 -0.31013 -7.56259 -10.18680 0.11800 
-107.64700 97.72950 102.61900 0.53247 1.35580 80.51730 1.79528 5.03872 3.28088 -0.33430 10.31710 6.80564 -11.01730 -7.51111 37.91330 -0.00000 -0.00000 0.00000 -65.73990 -5.43305 -18.26580 -14.16840 21.26180 -51.86680 5.55594 9.67997 -0.87718 25.54300 2.44300 6.63508 35.03510 5.83699 20.18660 11.19970 22.87290 65.95850 -5.55712 9.68432 0.87760 11.21150 -11.59530 3.33741 2.87365 15.69250 -7.07819 -10.18960 -2.34039 0.47385 0.70350 -17.22570 -2.88768 -5.71860 2.54864 -3.58207 -3.32977 19.30890 -0.06975 -0.90443 -17.77510 -0.32137 -7.58415 -10.20710 0.13567 
-107.74500 97.76960 102.38700 0.52896 1.45914 80.71160 1.64144 5.11190 3.31770 -0.53863 10.45360 6.87789 -11.01920 -7.77732 37.83020 -0.00000 -0.00000 0.00000 -65.51640 -5.43358 -18.78320 -14.06960 21.13880 -52.35500 5.55594 9.67997 -0.87718 25.83670 2.49901 6.75332 34.93670 5.55931 19.68450 11.24140 23.06610 66.57980 -5.55712 9.68432 0.87760 10.89610 -11.81190 3.49412 3.02414 15.70690 -7.65503 -10.27970 -2.38789 0.47410 0.70736 -17.00160 -2.94558 -6.08442 2.54486 -3.88801 -3.07877 19.18600 0.02750 -0.95994 -17.80520 -0.32686 -7.43530 -10.02060 0.13759 
-107.83300 97.80410 102.15000 0.46406 1.55117 80.88220 1.50281 5.18275 3.37843 -0.74074 10.58660 6.99879 -11.05010 -8.03495 37.69020 -0.00000 -0.00000 0.00000 -65.27480 -5.46021 -19.15240 -14.01220 21.13010 -52.95560 5.55594 9.67997 -0.87718 26.07590 2.54447 6.84722 34.81620 5.34202 19.22420 11.28650 23.27950 67.25870 -5.55712 9.68432 0.87760 10.57290 -12.11300 3.58498 3.22275 15.83270 -8.19789 -10.41870 -2.51427 0.46982 0.71031 -16.73710 -2.99038 -6.43763 2.48708 -4.18348 -2.83010 19.06760 0.18283 -0.92111 -17.99840 -0.32628 -7.11701 -9.62161 0.13959 
-107.90900 97.82780 101.90800 0.32642 1.63044 81.04370 1.38456 5.24813 3.45868 -0.92934 10.71040 7.15806 -11.11950 -8.28960 37.49230 -0.00000 -0.00000 0.00000 -65.04130 -5.51433 -19.36400 -13.98780 21.21830 -53.65970 5.55594 9.67997 -0.87718 26.24180 2.57585 6.91088 34.68550 5.18302 18.83810 11.33150 23.50720 68.00310 -5.55712 9.68432 0.87760 10.26900 -12.52190 3.62016 3.41790 16.08830 -8.69500 -10.59690 -2.77519 0.45531 0.71014 -16.35420 -2.99829 -6.77903 2.35587 -4.46339 -2.57629 18.97910 0.36304 -0.78966 -18.35800 -0.31917 -6.65010 -9.02775 0.15788 
-107.97300 97.83490 101.65700 0.11100 1.69766 81.21240 1.29012 5.30692 3.55304 -1.09628 10.82340 7.34360 -11.23350 -8.55029 37.23650 -0.00000 -0.00000 0.00000 -64.83890 -5.58691 -19.41530 -13.98510 21.37620 -54.44370 5.55594 9.67997 -0.87718 26.32550 2.59158 6.94233 34.55230 5.06833 18.55120 11.37170 23.74160 68.82160 -5.55712 9.68432 0.87760 10.01180 -13.06800 3.62039 3.55344 16.51230 -9.12271 -10.80340 -3.20802 0.42593 0.70564 -15.80910 -2.96102 -7.11584 2.13466 -4.72793 -2.30728 18.95130 0.53301 -0.57628 -18.87190 -0.30497 -6.07416 -8.27976 0.20695 
